<svg id="Ebene_1" data-name="Ebene 1" xmlns="http://www.w3.org/2000/svg" viewBox="0 0 245.64 36.06"><title>logo</title><path d="M853.93,382.62V346.56h6v31h27.32v5H853.93Z" transform="translate(-853.93 -346.56)"/><path d="M913.05,355.09q0-5,1.78-6.74t6.69-1.78h25q4.9,0,6.65,1.78t1.75,6.74v19q0,5-1.75,6.74t-6.65,1.78h-25q-4.9,0-6.69-1.78t-1.78-6.74v-19Zm6,22.5H948.9V351.38H919.06v26.21Z" transform="translate(-853.93 -346.56)"/><path d="M1020.88,351.38H992.65v26.21h28.23V367h-14.61v-4.61h20.62v11.67q0,5-1.78,6.74t-6.67,1.78H995.09q-4.89,0-6.67-1.78t-1.78-6.74v-19q0-5,1.78-6.74t6.67-1.78h23.34q4.75,0,6.6,1.69t1.85,6.35v0.91l-6,1.19v-5.31Z" transform="translate(-853.93 -346.56)"/><path d="M1057.71,355.09q0-5,1.78-6.74t6.69-1.78h25q4.9,0,6.65,1.78t1.75,6.74v19q0,5-1.75,6.74t-6.65,1.78h-25q-4.9,0-6.69-1.78t-1.78-6.74v-19Zm6,22.5h29.84V351.38h-29.84v26.21Z" transform="translate(-853.93 -346.56)"/></svg>